<svg xmlns="http://www.w3.org/2000/svg" viewBox="0 0 980 800" role="img" aria-label="GEMC GUI Display page">
  <title>GEMC GUI — Display page</title>
  <defs>
    <!-- arrowhead for annotations -->
    <marker id="arr" markerWidth="9" markerHeight="7" refX="8" refY="3.5" orient="auto">
      <polygon points="0 0, 9 3.5, 0 7" fill="#c8200e"/>
    </marker>
    <style>
      :root {
        color-scheme: light dark;
        --bg:       #f2f2f7;
        --chrome:   #e5e5ea;
        --panel:    #ffffff;
        --section:  #e8e8ed;
        --border:   #c7c7cc;
        --ink:      #1c1c1e;
        --muted:    #6e6e73;
        --active:   #007aff;
        --toggle:   #e05a52;
        --input:    #ffffff;
        --ann-fill: rgba(255,255,255,0.96);
        --ann-stroke:#1a50c0;
        --ann-ink:  #0a0a0a;
      }
      @media (prefers-color-scheme: dark) {
        :root {
          --bg:       #1c1c1e;
          --chrome:   #2c2c2e;
          --panel:    #2c2c2e;
          --section:  #3a3a3c;
          --border:   #545458;
          --ink:      #f2f2f7;
          --muted:    #aeaeb2;
          --input:    #3a3a3c;
          --ann-fill: rgba(28,28,30,0.96);
          --ann-stroke:#5b8cff;
          --ann-ink:  #f0f0f0;
        }
      }
      text { font-family: Avenir, "Segoe UI", Arial, sans-serif; }
      .ui-label   { fill: var(--ink);   font-size: 11px; }
      .ui-small   { fill: var(--muted); font-size: 10px; }
      .sec-title  { fill: var(--muted); font-size: 10px; font-weight: 600; letter-spacing:.4px; text-transform: uppercase; }
      .toggle-lbl { fill: #ffffff;      font-size: 11px; font-weight: 700; text-anchor: middle; }
      .topbar-btn { fill: var(--chrome); stroke: var(--border); stroke-width: 1; }
      .page-btn   { fill: var(--chrome); stroke: var(--border); stroke-width: 1; }
      .page-active{ fill: var(--active); }
      .mono-icon  { color: var(--ink); }
      .section-box{ fill: var(--section); stroke: var(--border); stroke-width: 1; }
      .input-box  { fill: var(--input);   stroke: var(--border); stroke-width: 1; }
      .slider-track{ fill: var(--border); }
      .slider-thumb{ fill: var(--input);  stroke: var(--border); stroke-width: 1.5; }
      /* annotations */
      .ann-box  { fill: var(--ann-fill); stroke: var(--ann-stroke); stroke-width: 1.8; }
      .ann-text { fill: var(--ann-ink);  font-size: 11.5px; font-weight: 700; text-anchor: middle; }
      .ann-line { stroke: #c8200e; stroke-width: 2.2; fill: none; marker-end: url(#arr); }
    </style>
  </defs>

  <!-- ── window background ──────────────────────────────────────── -->
  <rect width="980" height="800" fill="var(--bg)"/>

  <!-- ── top bar ───────────────────────────────────────────────── -->
  <rect x="0" y="0" width="980" height="50" fill="var(--chrome)"/>
  <text x="14" y="30" class="ui-label">N. Events:</text>
  <rect x="84"  y="14" width="36" height="22" rx="4" class="input-box"/>
  <text x="102" y="30" class="ui-label" text-anchor="middle">1</text>
  <rect x="130" y="11" width="54" height="26" rx="6" class="topbar-btn"/>
  <text x="157" y="29" class="ui-label" text-anchor="middle">▶ Run</text>
  <rect x="192" y="11" width="62" height="26" rx="6" class="topbar-btn"/>
  <text x="223" y="29" class="ui-label" text-anchor="middle">↻ Cycle</text>
  <rect x="262" y="11" width="56" height="26" rx="6" class="topbar-btn"/>
  <text x="290" y="29" class="ui-label" text-anchor="middle">■ Stop</text>
  <text x="332" y="30" class="ui-label">Event Number: 0</text>
  <rect x="904" y="11" width="62" height="26" rx="6" class="topbar-btn"/>
  <text x="935" y="29" class="ui-label" text-anchor="middle">✕ Exit</text>

  <!-- ── left sidebar ──────────────────────────────────────────── -->
  <rect x="0" y="50" width="112" height="750" fill="var(--chrome)" stroke="var(--border)" stroke-width="0.5"/>

  <!-- Display (active) — icon: src/gui/images/buttons/display_1.svg -->
  <rect x="11" y="60" width="90" height="90" rx="10" class="page-active"/>
  <g transform="translate(11,60) scale(1.875)" style="color:white">
    <rect x="6" y="6" width="36" height="36" rx="3" fill="none" stroke="currentColor" stroke-width="1"/>
    <rect x="14" y="12" width="20" height="12" rx="2" fill="none" stroke="currentColor" stroke-width="1"/>
    <line x1="24" y1="24" x2="24" y2="29" stroke="currentColor" stroke-width="1" stroke-linecap="round"/>
    <text x="24" y="38" text-anchor="middle" fill="currentColor" font-size="8" font-family="Arial">Display</text>
  </g>

  <!-- Setup — icon: src/gui/images/buttons/setup_1.svg -->
  <rect x="11" y="160" width="90" height="90" rx="10" class="page-btn"/>
  <g transform="translate(11,160) scale(1.875)" style="color:var(--muted)">
    <rect x="6" y="6" width="36" height="36" rx="3" fill="none" stroke="currentColor" stroke-width="1"/>
    <rect x="10.5" y="8"  width="6" height="6" fill="currentColor"/>
    <rect x="17.5" y="8"  width="6" height="6" fill="currentColor"/>
    <rect x="24.5" y="8"  width="6" height="6" fill="#CCCCCC"/>
    <rect x="31.5" y="8"  width="6" height="6" fill="currentColor"/>
    <rect x="10.5" y="15" width="6" height="6" fill="currentColor"/>
    <rect x="17.5" y="15" width="6" height="6" fill="#CCCCCC"/>
    <rect x="24.5" y="15" width="6" height="6" fill="currentColor"/>
    <rect x="31.5" y="15" width="6" height="6" fill="currentColor"/>
    <rect x="10.5" y="22" width="6" height="6" fill="currentColor"/>
    <rect x="17.5" y="22" width="6" height="6" fill="currentColor"/>
    <rect x="24.5" y="22" width="6" height="6" fill="currentColor"/>
    <rect x="31.5" y="22" width="6" height="6" fill="#CCCCCC"/>
    <text x="24" y="38" text-anchor="middle" fill="currentColor" font-size="8" font-family="Arial">Setup</text>
  </g>

  <!-- Volumes — icon: src/gui/images/buttons/tree_1.svg -->
  <rect x="11" y="260" width="90" height="90" rx="10" class="page-btn"/>
  <g transform="translate(11,260) scale(1.875)" style="color:var(--muted)">
    <rect x="6" y="6" width="36" height="36" rx="3" fill="none" stroke="currentColor" stroke-width="1"/>
    <ellipse cx="16" cy="16" rx="6" ry="3" fill="none" stroke="currentColor" stroke-width="1"/>
    <rect x="10" y="16" width="12" height="8" fill="none" stroke="currentColor" stroke-width="1"/>
    <ellipse cx="16" cy="24" rx="6" ry="3" fill="none" stroke="currentColor" stroke-width="1"/>
    <line x1="28" y1="14" x2="28" y2="26" stroke="currentColor" stroke-width="1" stroke-linecap="round"/>
    <line x1="28" y1="18" x2="34" y2="18" stroke="currentColor" stroke-width="1" stroke-linecap="round"/>
    <circle cx="36" cy="18" r="1.5" fill="none" stroke="currentColor" stroke-width="1"/>
    <line x1="28" y1="22" x2="34" y2="22" stroke="currentColor" stroke-width="1" stroke-linecap="round"/>
    <circle cx="36" cy="22" r="1.5" fill="none" stroke="currentColor" stroke-width="1"/>
    <text x="24" y="38" text-anchor="middle" fill="currentColor" font-size="8" font-family="Arial">Volumes</text>
  </g>

  <!-- G4Dialog — icon: src/gui/images/buttons/dialog_1.svg -->
  <rect x="11" y="360" width="90" height="90" rx="10" class="page-btn"/>
  <g transform="translate(11,360) scale(1.875)" style="color:var(--muted)">
    <rect x="6" y="6" width="36" height="36" rx="3" fill="none" stroke="currentColor" stroke-width="1"/>
    <line x1="6" y1="12" x2="42" y2="12" stroke="currentColor" stroke-width="1"/>
    <text x="24" y="25" text-anchor="middle" fill="currentColor" font-size="10" font-family="Monaco">&gt;_</text>
    <text x="24" y="38" text-anchor="middle" fill="currentColor" font-size="8" font-family="Arial">G4Dialog</text>
  </g>

  <!-- Generator — icon: src/gui/images/buttons/generator_1.svg -->
  <rect x="11" y="460" width="90" height="90" rx="10" class="page-btn"/>
  <g transform="translate(11,460) scale(1.875)" style="color:var(--muted)">
    <rect x="6" y="6" width="36" height="36" rx="3" fill="none" stroke="currentColor" stroke-width="1"/>
    <circle cx="17" cy="19" r="4"  stroke="currentColor" stroke-width="0.6" opacity="0.30"/>
    <circle cx="17" cy="19" r="8"  stroke="currentColor" stroke-width="0.6" opacity="0.25"/>
    <circle cx="17" cy="19" r="12" stroke="currentColor" stroke-width="0.6" opacity="0.20"/>
    <path d="M17,19 Q27,13 37,11" stroke="currentColor" stroke-width="1.1" opacity="0.60" stroke-linecap="round"/>
    <path d="M17,19 Q28,19 38,19" stroke="currentColor" stroke-width="1.1" opacity="0.60" stroke-linecap="round"/>
    <path d="M17,19 Q27,24 37,27" stroke="currentColor" stroke-width="1.1" opacity="0.55" stroke-linecap="round"/>
    <path d="M17,19 Q11,13 8,10"  stroke="currentColor" stroke-width="1.0" opacity="0.40" stroke-linecap="round"/>
    <circle cx="37" cy="11" r="1.8" fill="currentColor" opacity="0.75"/>
    <circle cx="38" cy="19" r="1.8" fill="currentColor" opacity="0.75"/>
    <circle cx="37" cy="27" r="1.8" fill="currentColor" opacity="0.65"/>
    <circle cx="8"  cy="10" r="1.6" fill="currentColor" opacity="0.50"/>
    <circle cx="17" cy="19" r="3.0" fill="currentColor" opacity="0.85"/>
    <text x="24" y="38" text-anchor="middle" fill="currentColor" font-size="7" font-family="Arial">Generator</text>
  </g>

  <!-- ── main content panel ─────────────────────────────────────── -->
  <rect x="120" y="56" width="848" height="736" rx="8" fill="var(--panel)" stroke="var(--border)" stroke-width="0.5"/>

  <!-- View / Utilities tabs -->
  <rect x="428" y="64" width="66" height="24" rx="12" fill="var(--active)"/>
  <text x="461" y="81" text-anchor="middle" fill="white" font-size="12" font-family="Avenir,Arial,sans-serif">View</text>
  <text x="552" y="81" text-anchor="middle" class="ui-small">Utilities</text>

  <!-- ── four SVG toggle buttons ────────────────────────────────── -->
  <rect x="148" y="104" width="78" height="78" rx="9" class="page-btn"/>
  <g transform="translate(151,107) scale(1.5)" style="color:#6e6e73">
    <rect x="6" y="6" width="36" height="36" rx="3" fill="none" stroke="currentColor" stroke-width="1"/>
    <rect x="11" y="14" width="12" height="8" fill="none" stroke="currentColor" stroke-width="1.3"
          stroke-linejoin="round"/>
    <rect x="20" y="12" width="12" height="8" fill="none" stroke="currentColor" stroke-width="1"
          stroke-dasharray="2,1.5" stroke-linejoin="round"/>
    <line x1="11" y1="14" x2="20" y2="12" stroke="currentColor" stroke-width="1.3" stroke-linecap="round"/>
    <line x1="23" y1="14" x2="32" y2="12" stroke="currentColor" stroke-width="1.3" stroke-linecap="round"/>
    <line x1="23" y1="22" x2="32" y2="20" stroke="currentColor" stroke-width="1.3" stroke-linecap="round"/>
    <line x1="11" y1="22" x2="20" y2="20" stroke="currentColor" stroke-width="1"
          stroke-dasharray="2,1.5" stroke-linecap="round"/>
    <text x="24" y="31" font-size="7.5" text-anchor="middle" font-family="Arial"
          fill="currentColor" font-weight="500">Hidden</text>
    <text x="24" y="38" font-size="7.5" text-anchor="middle" font-family="Arial"
          fill="currentColor" font-weight="500">Lines</text>
  </g>

  <rect x="236" y="104" width="78" height="78" rx="9" class="page-btn"/>
  <g transform="translate(239,107) scale(1.5)" style="color:#6e6e73">
    <rect x="6" y="6" width="36" height="36" rx="3" fill="none" stroke="currentColor" stroke-width="1"/>
    <rect x="11" y="19.5" width="2.5" height="2.5" fill="currentColor"/>
    <rect x="13.5" y="17" width="2.5" height="2.5" fill="currentColor"/>
    <rect x="16" y="14.5" width="2.5" height="2.5" fill="currentColor"/>
    <rect x="18.5" y="12" width="2.5" height="2.5" fill="currentColor"/>
    <line x1="25" y1="12" x2="25" y2="22" stroke="currentColor" stroke-width="0.8"
          stroke-dasharray="2,1.5" opacity="0.5"/>
    <line x1="27" y1="22" x2="37" y2="12" stroke="currentColor" stroke-width="2"
          stroke-linecap="round"/>
    <text x="24" y="31" font-size="7.5" text-anchor="middle" font-family="Arial"
          fill="currentColor" font-weight="500">Anti</text>
    <text x="24" y="38" font-size="7.5" text-anchor="middle" font-family="Arial"
          fill="currentColor" font-weight="500">Aliasing</text>
  </g>

  <rect x="324" y="104" width="78" height="78" rx="9" class="page-btn"/>
  <g transform="translate(327,107) scale(1.5)" style="color:#6e6e73">
    <rect x="6" y="6" width="36" height="36" rx="3" fill="none" stroke="currentColor" stroke-width="1"/>
    <ellipse cx="24" cy="14" rx="11" ry="2" fill="none" stroke="currentColor" stroke-width="1.5"/>
    <line x1="13" y1="14" x2="13" y2="21" stroke="currentColor" stroke-width="1.5"
          stroke-linecap="round"/>
    <line x1="35" y1="14" x2="35" y2="21" stroke="currentColor" stroke-width="1.5"
          stroke-linecap="round"/>
    <ellipse cx="24" cy="21" rx="11" ry="2" fill="none" stroke="currentColor" stroke-width="1.5"/>
    <ellipse cx="24" cy="16.3" rx="11" ry="2" fill="none" stroke="currentColor" stroke-width="1"
             opacity="0.65"/>
    <ellipse cx="24" cy="18.7" rx="11" ry="2" fill="none" stroke="currentColor" stroke-width="1"
             opacity="0.65"/>
    <text x="24" y="31" font-size="7.5" text-anchor="middle" font-family="Arial"
          fill="currentColor" font-weight="500">Auxiliary</text>
    <text x="24" y="38" font-size="7.5" text-anchor="middle" font-family="Arial"
          fill="currentColor" font-weight="500">Edges</text>
  </g>

  <rect x="412" y="104" width="78" height="78" rx="9" class="page-btn"/>
  <g transform="translate(415,107) scale(1.5)" style="color:#6e6e73">
    <rect x="6" y="6" width="36" height="36" rx="3" fill="none" stroke="currentColor" stroke-width="1"/>
    <path d="M11,13 C15,11.7 19,14.3 25,13 C31,11.7 35,14.3 38,13"
          fill="none" stroke="currentColor" stroke-width="1.3" stroke-linecap="round"/>
    <polyline points="35,12 38,13 35,14" fill="none" stroke="currentColor" stroke-width="1.1"
              stroke-linejoin="round" stroke-linecap="round"/>
    <path d="M11,15.5 C15,14.2 19,16.8 25,15.5 C31,14.2 35,16.8 38,15.5"
          fill="none" stroke="currentColor" stroke-width="1.3" stroke-linecap="round"/>
    <polyline points="35,14.5 38,15.5 35,16.5" fill="none" stroke="currentColor" stroke-width="1.1"
              stroke-linejoin="round" stroke-linecap="round"/>
    <path d="M11,18 C15,16.7 19,19.3 25,18 C31,16.7 35,19.3 38,18"
          fill="none" stroke="currentColor" stroke-width="1.3" stroke-linecap="round"/>
    <polyline points="35,17 38,18 35,19" fill="none" stroke="currentColor" stroke-width="1.1"
              stroke-linejoin="round" stroke-linecap="round"/>
    <path d="M11,20.5 C15,19.2 19,21.8 25,20.5 C31,19.2 35,21.8 38,20.5"
          fill="none" stroke="currentColor" stroke-width="1.3" stroke-linecap="round"/>
    <polyline points="35,19.5 38,20.5 35,21.5" fill="none" stroke="currentColor" stroke-width="1.1"
              stroke-linejoin="round" stroke-linecap="round"/>
    <text x="24" y="31" font-size="7.5" text-anchor="middle" font-family="Arial"
          fill="currentColor" font-weight="500">Field</text>
    <text x="24" y="38" font-size="7.5" text-anchor="middle" font-family="Arial"
          fill="currentColor" font-weight="500">Lines</text>
  </g>

  <!-- Number of Field Points -->
  <rect x="512" y="104" width="220" height="78" rx="7" class="section-box"/>
  <text x="622" y="126" class="sec-title" text-anchor="middle">Number of Field Points</text>
  <text x="622" y="164" text-anchor="middle" fill="var(--ink)" font-size="24" font-weight="600"
        font-family="Avenir,Arial,sans-serif">5</text>

  <!-- ── Camera Direction section ───────────────────────────────── -->
  <rect x="136" y="188" width="596" height="172" rx="7" class="section-box"/>
  <text x="153" y="208" class="sec-title">Camera Direction</text>
  <!-- θ row -->
  <text x="153" y="255" class="ui-small">θ</text>
  <rect x="168" y="248" width="376" height="5" rx="2.5" class="slider-track"/>
  <circle cx="258" cy="250.5" r="9" class="slider-thumb"/>
  <rect x="552" y="240" width="50" height="20" rx="4" class="input-box"/>
  <text x="577" y="255" class="ui-small" text-anchor="middle">0</text>
  <rect x="606" y="240" width="20" height="20" rx="4" class="input-box"/>
  <text x="616" y="255" class="ui-small" text-anchor="middle">⌄</text>
  <!-- φ row -->
  <text x="153" y="323" class="ui-small">φ</text>
  <rect x="168" y="316" width="376" height="5" rx="2.5" class="slider-track"/>
  <circle cx="214" cy="318.5" r="9" class="slider-thumb"/>
  <rect x="552" y="308" width="50" height="20" rx="4" class="input-box"/>
  <text x="577" y="323" class="ui-small" text-anchor="middle">0</text>
  <rect x="606" y="308" width="20" height="20" rx="4" class="input-box"/>
  <text x="616" y="323" class="ui-small" text-anchor="middle">⌄</text>
  <rect x="628" y="331" width="86" height="22" rx="5" class="topbar-btn"/>
  <text x="671" y="346" class="ui-label" text-anchor="middle">Read View</text>

  <!-- ── View Properties section ────────────────────────────────── -->
  <rect x="746" y="188" width="204" height="172" rx="7" class="section-box"/>
  <text x="762" y="208" class="sec-title">View Properties</text>
  <!-- Projection -->
  <text x="762" y="234" class="ui-label">Projection:</text>
  <rect x="762" y="239" width="174" height="24" rx="5" class="input-box"/>
  <text x="845" y="256" class="ui-label" text-anchor="middle">Orthogonal</text>
  <text x="926" y="256" class="ui-small" text-anchor="middle">⌄</text>
  <!-- Sides per circle -->
  <text x="762" y="286" class="ui-label">Sides per circle:</text>
  <rect x="762" y="291" width="174" height="24" rx="5" class="input-box"/>
  <text x="845" y="308" class="ui-label" text-anchor="middle">50</text>
  <text x="926" y="308" class="ui-small" text-anchor="middle">⌄</text>

  <!-- ── Light Direction section ────────────────────────────────── -->
  <rect x="136" y="376" width="490" height="172" rx="7" class="section-box"/>
  <text x="153" y="396" class="sec-title">Light Direction</text>
  <!-- θ row -->
  <text x="153" y="440" class="ui-small">θ</text>
  <rect x="168" y="433" width="296" height="5" rx="2.5" class="slider-track"/>
  <circle cx="230" cy="435.5" r="9" class="slider-thumb"/>
  <rect x="472" y="425" width="50" height="20" rx="4" class="input-box"/>
  <text x="497" y="440" class="ui-small" text-anchor="middle">0</text>
  <rect x="526" y="425" width="20" height="20" rx="4" class="input-box"/>
  <text x="536" y="440" class="ui-small" text-anchor="middle">⌄</text>
  <!-- φ row -->
  <text x="153" y="508" class="ui-small">φ</text>
  <rect x="168" y="501" width="296" height="5" rx="2.5" class="slider-track"/>
  <circle cx="210" cy="503.5" r="9" class="slider-thumb"/>
  <rect x="472" y="493" width="50" height="20" rx="4" class="input-box"/>
  <text x="497" y="508" class="ui-small" text-anchor="middle">0</text>
  <rect x="526" y="493" width="20" height="20" rx="4" class="input-box"/>
  <text x="536" y="508" class="ui-small" text-anchor="middle">⌄</text>

  <!-- ── Scene Properties section ──────────────────────────────── -->
  <rect x="638" y="376" width="312" height="208" rx="7" class="section-box"/>
  <text x="654" y="396" class="sec-title">Scene Properties</text>
  <text x="654" y="422" class="ui-label">Culling:</text>
  <rect x="654" y="427" width="188" height="24" rx="5" class="input-box"/>
  <text x="740" y="444" class="ui-label" text-anchor="middle">Reset</text>
  <text x="832" y="444" class="ui-small" text-anchor="middle">⌄</text>
  <text x="654" y="472" class="ui-label">Background Color:</text>
  <rect x="654" y="477" width="148" height="24" rx="5" class="input-box"/>
  <text x="724" y="494" class="ui-label" text-anchor="middle">custom</text>
  <rect x="808" y="477" width="24" height="24" rx="4" fill="#1a1a2e" stroke="var(--border)" stroke-width="1"/>
  <text x="654" y="522" class="ui-label">Number of Cloud Points:</text>
  <rect x="812" y="506" width="92" height="24" rx="5" class="input-box"/>
  <text x="858" y="523" class="ui-label" text-anchor="middle">10,000</text>
  <text x="654" y="557" class="ui-label">Explode Factor:</text>
  <rect x="748" y="551" width="94" height="5" rx="2.5" class="slider-track"/>
  <circle cx="748" cy="553.5" r="8" class="slider-thumb"/>
  <text x="858" y="557" class="ui-small">1.00</text>
  <rect x="888" y="541" width="50" height="24" rx="5" class="input-box"/>
  <text x="913" y="558" class="ui-small" text-anchor="middle">Med</text>

  <!-- ── X / Y / Z slice rows ──────────────────────────────────── -->
  <!-- X -->
  <text x="140" y="612" class="ui-label">X:</text>
  <rect x="156" y="597" width="90" height="22" rx="4" class="input-box"/>
  <text x="201" y="613" class="ui-label" text-anchor="middle">0</text>
  <rect x="484" y="598" width="14" height="14" rx="2" class="input-box"/>
  <text x="502" y="611" class="ui-label">On</text>
  <rect x="540" y="598" width="14" height="14" rx="2" class="input-box"/>
  <text x="558" y="611" class="ui-label">Flip</text>

  <!-- Y -->
  <text x="140" y="648" class="ui-label">Y:</text>
  <rect x="156" y="633" width="90" height="22" rx="4" class="input-box"/>
  <text x="201" y="649" class="ui-label" text-anchor="middle">0</text>
  <rect x="484" y="634" width="14" height="14" rx="2" class="input-box"/>
  <text x="502" y="647" class="ui-label">On</text>
  <rect x="540" y="634" width="14" height="14" rx="2" class="input-box"/>
  <text x="558" y="647" class="ui-label">Flip</text>

  <!-- Z -->
  <text x="140" y="684" class="ui-label">Z:</text>
  <rect x="156" y="669" width="90" height="22" rx="4" class="input-box"/>
  <text x="201" y="685" class="ui-label" text-anchor="middle">0</text>
  <rect x="484" y="670" width="14" height="14" rx="2" class="input-box"/>
  <text x="502" y="683" class="ui-label">On</text>
  <rect x="540" y="670" width="14" height="14" rx="2" class="input-box"/>
  <text x="558" y="683" class="ui-label">Flip</text>

  <!-- Slices Style -->
  <text x="140" y="718" class="ui-label">Slices Style</text>
  <circle cx="158" cy="735" r="7" fill="var(--active)"/>
  <circle cx="158" cy="735" r="3" fill="white"/>
  <text x="171" y="740" class="ui-label">Intersection</text>
  <circle cx="300" cy="735" r="7" fill="none" stroke="var(--border)" stroke-width="1.5"/>
  <text x="313" y="740" class="ui-label">Union</text>

  <!-- Clear Slices button -->
  <rect x="136" y="752" width="816" height="30" rx="6" class="section-box"/>
  <text x="544" y="772" class="ui-label" text-anchor="middle">✕  Clear Slices</text>

  <!-- ═════════════════════════════════════════════════════════════
       ANNOTATIONS
       ═════════════════════════════════════════════════════════════ -->

  <!-- 1 · SVG rendering toggles
       Label above buttons, arrow down to center of toggle row    -->
  <line x1="319" y1="96" x2="319" y2="104" class="ann-line"/>
  <rect x="196" y="72" width="246" height="20" rx="5" class="ann-box"/>
  <text x="319" y="86" class="ann-text">SVG rendering toggles</text>

  <!-- 2 · Slide to orbit camera
       Label inside camera box just below header, arrow to θ thumb -->
  <line x1="380" y1="240" x2="268" y2="251" class="ann-line"/>
  <rect x="254" y="220" width="196" height="20" rx="5" class="ann-box"/>
  <text x="352" y="234" class="ann-text">Slide to orbit camera</text>

  <!-- 3 · Projection and precision — TWO arrows (Projection + Sides)
       Label in gap between NFP and View Properties             -->
  <line x1="838" y1="206" x2="838" y2="239" class="ann-line"/>
  <line x1="860" y1="206" x2="860" y2="291" class="ann-line"/>
  <rect x="730" y="185" width="248" height="20" rx="5" class="ann-box"/>
  <text x="854" y="199" class="ann-text">Projection and precision</text>

  <!-- 4 · Reposition light source
       Label inside light box near bottom, arrow up to θ thumb   -->
  <line x1="320" y1="542" x2="238" y2="444" class="ann-line"/>
  <rect x="192" y="546" width="228" height="20" rx="5" class="ann-box"/>
  <text x="306" y="560" class="ann-text">Reposition light source</text>

  <!-- 5 · Cut planes position
       Label right of On/Flip, horizontal arrow to X input       -->
  <line x1="630" y1="608" x2="250" y2="608" class="ann-line"/>
  <rect x="632" y="598" width="196" height="20" rx="5" class="ann-box"/>
  <text x="730" y="612" class="ann-text">Cut planes position</text>

  <!-- 6 · CUT Switch
       Label right of On/Flip on Y row, arrow left to Y "On" checkbox -->
  <line x1="630" y1="647" x2="500" y2="641" class="ann-line"/>
  <rect x="632" y="637" width="118" height="20" rx="5" class="ann-box"/>
  <text x="691" y="651" class="ann-text">CUT Switch</text>

  <!-- 7 · Cloud and explode scene controls -->
  <line x1="845" y1="601" x2="800" y2="555" class="ann-line"/>
  <rect x="754" y="590" width="182" height="20" rx="5" class="ann-box"/>
  <text x="845" y="604" class="ann-text">Cloud and explode</text>

</svg>
