<svg xmlns="http://www.w3.org/2000/svg" viewBox="0 0 980 600" role="img" aria-label="GEMC GUI Volumes page">
  <title>GEMC GUI — Volumes page (b2, chamber_0 selected)</title>
  <defs>
    <marker id="arr" markerWidth="9" markerHeight="7" refX="8" refY="3.5" orient="auto">
      <polygon points="0 0, 9 3.5, 0 7" fill="#c8200e"/>
    </marker>
    <style>
      :root {
        color-scheme: light dark;
        --bg:        #f2f2f7;
        --chrome:    #e5e5ea;
        --panel:     #ffffff;
        --section:   #e8e8ed;
        --border:    #c7c7cc;
        --ink:       #1c1c1e;
        --muted:     #6e6e73;
        --active:    #007aff;
        --input:     #ffffff;
        --selected:  #dbeafe;
        --divider:   #d1d1d6;
        --ann-fill:  rgba(255,255,255,0.96);
        --ann-stroke:#1a50c0;
        --ann-ink:   #0a0a0a;
      }
      @media (prefers-color-scheme: dark) {
        :root {
          --bg:        #1c1c1e;
          --chrome:    #2c2c2e;
          --panel:     #2c2c2e;
          --section:   #3a3a3c;
          --border:    #545458;
          --ink:       #f2f2f7;
          --muted:     #aeaeb2;
          --input:     #3a3a3c;
          --selected:  #1e3a5f;
          --divider:   #48484a;
          --ann-fill:  rgba(28,28,30,0.96);
          --ann-stroke:#5b8cff;
          --ann-ink:   #f0f0f0;
        }
      }
      text { font-family: Avenir, "Segoe UI", Arial, sans-serif; }
      .ui-label   { fill: var(--ink);   font-size: 11px; }
      .ui-small   { fill: var(--muted); font-size: 10px; }
      .sec-title  { fill: var(--muted); font-size: 10px; font-weight: 600; letter-spacing: .4px; text-transform: uppercase; }
      .prop-key   { fill: var(--muted); font-size: 10px; }
      .prop-val   { fill: var(--ink);   font-size: 10px; }
      .topbar-btn { fill: var(--chrome); stroke: var(--border); stroke-width: 1; }
      .page-btn   { fill: var(--chrome); stroke: var(--border); stroke-width: 1; }
      .page-active{ fill: var(--active); }
      .input-box  { fill: var(--input);  stroke: var(--border); stroke-width: 1; }
      .style-btn  { fill: var(--section); stroke: var(--border); stroke-width: 1; }
      .ann-box    { fill: var(--ann-fill);   stroke: var(--ann-stroke); stroke-width: 1.8; }
      .ann-text   { fill: var(--ann-ink);    font-size: 11.5px; font-weight: 700; text-anchor: middle; }
      .ann-line   { stroke: #c8200e; stroke-width: 2.2; fill: none; marker-end: url(#arr); }
    </style>
  </defs>

  <!-- ── window background ──────────────────────────────────────── -->
  <rect width="980" height="600" fill="var(--bg)"/>

  <!-- ── top bar ───────────────────────────────────────────────── -->
  <rect x="0" y="0" width="980" height="50" fill="var(--chrome)"/>
  <text x="14" y="30" class="ui-label">N. Events:</text>
  <rect x="84"  y="14" width="36" height="22" rx="4" class="input-box"/>
  <text x="102" y="30" class="ui-label" text-anchor="middle">1</text>
  <rect x="130" y="11" width="54" height="26" rx="6" class="topbar-btn"/>
  <text x="157" y="29" class="ui-label" text-anchor="middle">▶ Run</text>
  <rect x="192" y="11" width="62" height="26" rx="6" class="topbar-btn"/>
  <text x="223" y="29" class="ui-label" text-anchor="middle">↻ Cycle</text>
  <rect x="262" y="11" width="56" height="26" rx="6" class="topbar-btn"/>
  <text x="290" y="29" class="ui-label" text-anchor="middle">■ Stop</text>
  <text x="332" y="30" class="ui-label">Event Number: 0</text>
  <rect x="904" y="11" width="62" height="26" rx="6" class="topbar-btn"/>
  <text x="935" y="29" class="ui-label" text-anchor="middle">✕ Exit</text>

  <!-- ── left sidebar ──────────────────────────────────────────── -->
  <rect x="0" y="50" width="112" height="550" fill="var(--chrome)" stroke="var(--border)" stroke-width="0.5"/>

  <!-- Display — icon: src/gui/images/buttons/display_1.svg -->
  <rect x="11" y="60" width="90" height="90" rx="10" class="page-btn"/>
  <g transform="translate(11,60) scale(1.875)" style="color:var(--muted)">
    <rect x="6" y="6" width="36" height="36" rx="3" fill="none" stroke="currentColor" stroke-width="1"/>
    <rect x="14" y="12" width="20" height="12" rx="2" fill="none" stroke="currentColor" stroke-width="1"/>
    <line x1="24" y1="24" x2="24" y2="29" stroke="currentColor" stroke-width="1" stroke-linecap="round"/>
    <text x="24" y="38" text-anchor="middle" fill="currentColor" font-size="8" font-family="Arial">Display</text>
  </g>

  <!-- Setup — icon: src/gui/images/buttons/setup_1.svg -->
  <rect x="11" y="160" width="90" height="90" rx="10" class="page-btn"/>
  <g transform="translate(11,160) scale(1.875)" style="color:var(--muted)">
    <rect x="6" y="6" width="36" height="36" rx="3" fill="none" stroke="currentColor" stroke-width="1"/>
    <rect x="10.5" y="8"  width="6" height="6" fill="currentColor"/>
    <rect x="17.5" y="8"  width="6" height="6" fill="currentColor"/>
    <rect x="24.5" y="8"  width="6" height="6" fill="#CCCCCC"/>
    <rect x="31.5" y="8"  width="6" height="6" fill="currentColor"/>
    <rect x="10.5" y="15" width="6" height="6" fill="currentColor"/>
    <rect x="17.5" y="15" width="6" height="6" fill="#CCCCCC"/>
    <rect x="24.5" y="15" width="6" height="6" fill="currentColor"/>
    <rect x="31.5" y="15" width="6" height="6" fill="currentColor"/>
    <rect x="10.5" y="22" width="6" height="6" fill="currentColor"/>
    <rect x="17.5" y="22" width="6" height="6" fill="currentColor"/>
    <rect x="24.5" y="22" width="6" height="6" fill="currentColor"/>
    <rect x="31.5" y="22" width="6" height="6" fill="#CCCCCC"/>
    <text x="24" y="38" text-anchor="middle" fill="currentColor" font-size="8" font-family="Arial">Setup</text>
  </g>

  <!-- Volumes (active) — icon: src/gui/images/buttons/tree_1.svg -->
  <rect x="11" y="260" width="90" height="90" rx="10" class="page-active"/>
  <g transform="translate(11,260) scale(1.875)" style="color:white">
    <rect x="6" y="6" width="36" height="36" rx="3" fill="none" stroke="currentColor" stroke-width="1"/>
    <ellipse cx="16" cy="16" rx="6" ry="3" fill="none" stroke="currentColor" stroke-width="1"/>
    <rect x="10" y="16" width="12" height="8" fill="none" stroke="currentColor" stroke-width="1"/>
    <ellipse cx="16" cy="24" rx="6" ry="3" fill="none" stroke="currentColor" stroke-width="1"/>
    <line x1="28" y1="14" x2="28" y2="26" stroke="currentColor" stroke-width="1" stroke-linecap="round"/>
    <line x1="28" y1="18" x2="34" y2="18" stroke="currentColor" stroke-width="1" stroke-linecap="round"/>
    <circle cx="36" cy="18" r="1.5" fill="none" stroke="currentColor" stroke-width="1"/>
    <line x1="28" y1="22" x2="34" y2="22" stroke="currentColor" stroke-width="1" stroke-linecap="round"/>
    <circle cx="36" cy="22" r="1.5" fill="none" stroke="currentColor" stroke-width="1"/>
    <text x="24" y="38" text-anchor="middle" fill="currentColor" font-size="8" font-family="Arial">Volumes</text>
  </g>

  <!-- G4Dialog — icon: src/gui/images/buttons/dialog_1.svg -->
  <rect x="11" y="360" width="90" height="90" rx="10" class="page-btn"/>
  <g transform="translate(11,360) scale(1.875)" style="color:var(--muted)">
    <rect x="6" y="6" width="36" height="36" rx="3" fill="none" stroke="currentColor" stroke-width="1"/>
    <line x1="6" y1="12" x2="42" y2="12" stroke="currentColor" stroke-width="1"/>
    <text x="24" y="25" text-anchor="middle" fill="currentColor" font-size="10" font-family="Monaco">&gt;_</text>
    <text x="24" y="38" text-anchor="middle" fill="currentColor" font-size="8" font-family="Arial">G4Dialog</text>
  </g>

  <!-- Generator — icon: src/gui/images/buttons/generator_1.svg -->
  <rect x="11" y="460" width="90" height="90" rx="10" class="page-btn"/>
  <g transform="translate(11,460) scale(1.875)" style="color:var(--muted)">
    <rect x="6" y="6" width="36" height="36" rx="3" fill="none" stroke="currentColor" stroke-width="1"/>
    <circle cx="17" cy="19" r="4"  stroke="currentColor" stroke-width="0.6" opacity="0.30"/>
    <circle cx="17" cy="19" r="8"  stroke="currentColor" stroke-width="0.6" opacity="0.25"/>
    <circle cx="17" cy="19" r="12" stroke="currentColor" stroke-width="0.6" opacity="0.20"/>
    <path d="M17,19 Q27,13 37,11" stroke="currentColor" stroke-width="1.1" opacity="0.60" stroke-linecap="round"/>
    <path d="M17,19 Q28,19 38,19" stroke="currentColor" stroke-width="1.1" opacity="0.60" stroke-linecap="round"/>
    <path d="M17,19 Q27,24 37,27" stroke="currentColor" stroke-width="1.1" opacity="0.55" stroke-linecap="round"/>
    <path d="M17,19 Q11,13 8,10"  stroke="currentColor" stroke-width="1.0" opacity="0.40" stroke-linecap="round"/>
    <circle cx="37" cy="11" r="1.8" fill="currentColor" opacity="0.75"/>
    <circle cx="38" cy="19" r="1.8" fill="currentColor" opacity="0.75"/>
    <circle cx="37" cy="27" r="1.8" fill="currentColor" opacity="0.65"/>
    <circle cx="8"  cy="10" r="1.6" fill="currentColor" opacity="0.50"/>
    <circle cx="17" cy="19" r="3.0" fill="currentColor" opacity="0.85"/>
    <text x="24" y="38" text-anchor="middle" fill="currentColor" font-size="7" font-family="Arial">Generator</text>
  </g>

  <!-- ── main content panel ─────────────────────────────────────── -->
  <rect x="120" y="56" width="848" height="536" rx="8" fill="var(--panel)" stroke="var(--border)" stroke-width="0.5"/>

  <!-- vertical divider between tree and properties -->
  <line x1="662" y1="66" x2="662" y2="584" stroke="var(--divider)" stroke-width="1"/>

  <!-- ── tree column headers ────────────────────────────────────── -->
  <rect x="136" y="128" width="518" height="22" fill="var(--section)"/>
  <line x1="136" y1="150" x2="654" y2="150" stroke="var(--border)" stroke-width="0.8"/>
  <text x="150" y="143" class="sec-title">Visibility</text>
  <text x="192" y="143" class="sec-title">Color</text>
  <text x="234" y="143" class="sec-title">Name</text>

  <!-- column dividers in header -->
  <line x1="182" y1="128" x2="182" y2="150" stroke="var(--border)" stroke-width="0.8"/>
  <line x1="224" y1="128" x2="224" y2="150" stroke="var(--border)" stroke-width="0.8"/>

  <!-- ── tree rows ──────────────────────────────────────────────── -->

  <!-- Helper: each row has a visibility checkbox (col 0), color btn (col 1), name (col 2) -->
  <!-- col centers: visibility x=149, color x=182-224 midpoint=203, name x=234+ -->

  <!-- b2 system row -->
  <rect x="136" y="150" width="518" height="22" fill="var(--section)"/>
  <line x1="136" y1="172" x2="654" y2="172" stroke="var(--border)" stroke-width="0.5"/>
  <rect x="141" y="154" width="14" height="14" rx="2" fill="var(--active)"/>
  <polyline points="143,161 147,165 154,157" fill="none" stroke="white" stroke-width="1.8" stroke-linecap="round" stroke-linejoin="round"/>
  <text x="198" y="165" class="ui-small">▸</text>
  <text x="212" y="165" class="ui-label" font-weight="600">b2</text>

  <!-- root (invisible, unchecked) -->
  <rect x="136" y="172" width="518" height="22" fill="var(--panel)"/>
  <line x1="136" y1="194" x2="654" y2="194" stroke="var(--border)" stroke-width="0.5"/>
  <rect x="141" y="176" width="14" height="14" rx="2" class="input-box"/>
  <!-- ghostwhite color swatch (very light) -->
  <rect x="185" y="177" width="16" height="12" rx="2" fill="#f8f8ff" stroke="var(--border)" stroke-width="1"/>
  <text x="234" y="187" class="ui-small" fill="var(--muted)">root</text>

  <!-- target (checked, steelblue) -->
  <rect x="136" y="194" width="518" height="22" fill="var(--section)"/>
  <line x1="136" y1="216" x2="654" y2="216" stroke="var(--border)" stroke-width="0.5"/>
  <rect x="141" y="198" width="14" height="14" rx="2" fill="var(--active)"/>
  <polyline points="143,205 147,209 154,201" fill="none" stroke="white" stroke-width="1.8" stroke-linecap="round" stroke-linejoin="round"/>
  <!-- steelblue color swatch -->
  <rect x="185" y="199" width="16" height="12" rx="2" fill="#4682b4" stroke="var(--border)" stroke-width="1"/>
  <text x="234" y="209" class="ui-label">target</text>

  <!-- tracker (checked, semi-transparent, expanded) -->
  <rect x="136" y="216" width="518" height="22" fill="var(--panel)"/>
  <line x1="136" y1="238" x2="654" y2="238" stroke="var(--border)" stroke-width="0.5"/>
  <rect x="141" y="220" width="14" height="14" rx="2" fill="var(--active)"/>
  <polyline points="143,227 147,231 154,223" fill="none" stroke="white" stroke-width="1.8" stroke-linecap="round" stroke-linejoin="round"/>
  <!-- air/transparent: very faint swatch -->
  <rect x="185" y="221" width="16" height="12" rx="2" fill="#e8e8e8" stroke="var(--border)" stroke-width="1" opacity="0.5"/>
  <text x="234" y="231" class="ui-label">▾ tracker</text>

  <!-- chamber_0 — SELECTED (highlighted row) -->
  <rect x="136" y="238" width="518" height="22" fill="var(--selected)"/>
  <line x1="136" y1="260" x2="654" y2="260" stroke="var(--border)" stroke-width="0.5"/>
  <rect x="141" y="242" width="14" height="14" rx="2" fill="var(--active)"/>
  <polyline points="143,249 147,253 154,245" fill="none" stroke="white" stroke-width="1.8" stroke-linecap="round" stroke-linejoin="round"/>
  <!-- papayawhip color swatch -->
  <rect x="185" y="243" width="16" height="12" rx="2" fill="#ffefd5" stroke="var(--border)" stroke-width="1"/>
  <text x="248" y="253" class="ui-label" font-weight="600">chamber_0</text>

  <!-- chamber_1 -->
  <rect x="136" y="260" width="518" height="22" fill="var(--section)"/>
  <line x1="136" y1="282" x2="654" y2="282" stroke="var(--border)" stroke-width="0.5"/>
  <rect x="141" y="264" width="14" height="14" rx="2" fill="var(--active)"/>
  <polyline points="143,271 147,275 154,267" fill="none" stroke="white" stroke-width="1.8" stroke-linecap="round" stroke-linejoin="round"/>
  <rect x="185" y="265" width="16" height="12" rx="2" fill="#ffefd5" stroke="var(--border)" stroke-width="1"/>
  <text x="248" y="275" class="ui-label">chamber_1</text>

  <!-- chamber_2 -->
  <rect x="136" y="282" width="518" height="22" fill="var(--panel)"/>
  <line x1="136" y1="304" x2="654" y2="304" stroke="var(--border)" stroke-width="0.5"/>
  <rect x="141" y="286" width="14" height="14" rx="2" fill="var(--active)"/>
  <polyline points="143,293 147,297 154,289" fill="none" stroke="white" stroke-width="1.8" stroke-linecap="round" stroke-linejoin="round"/>
  <rect x="185" y="287" width="16" height="12" rx="2" fill="#ffefd5" stroke="var(--border)" stroke-width="1"/>
  <text x="248" y="297" class="ui-label">chamber_2</text>

  <!-- chamber_3 -->
  <rect x="136" y="304" width="518" height="22" fill="var(--section)"/>
  <line x1="136" y1="326" x2="654" y2="326" stroke="var(--border)" stroke-width="0.5"/>
  <rect x="141" y="308" width="14" height="14" rx="2" fill="var(--active)"/>
  <polyline points="143,315 147,319 154,311" fill="none" stroke="white" stroke-width="1.8" stroke-linecap="round" stroke-linejoin="round"/>
  <rect x="185" y="309" width="16" height="12" rx="2" fill="#ffefd5" stroke="var(--border)" stroke-width="1"/>
  <text x="248" y="319" class="ui-label">chamber_3</text>

  <!-- chamber_4 -->
  <rect x="136" y="326" width="518" height="22" fill="var(--panel)"/>
  <line x1="136" y1="348" x2="654" y2="348" stroke="var(--border)" stroke-width="0.5"/>
  <rect x="141" y="330" width="14" height="14" rx="2" fill="var(--active)"/>
  <polyline points="143,337 147,341 154,333" fill="none" stroke="white" stroke-width="1.8" stroke-linecap="round" stroke-linejoin="round"/>
  <rect x="185" y="331" width="16" height="12" rx="2" fill="#ffefd5" stroke="var(--border)" stroke-width="1"/>
  <text x="248" y="341" class="ui-label">chamber_4</text>

  <!-- ── right properties panel ─────────────────────────────────── -->
  <text x="680" y="168" fill="var(--ink)" font-size="14" font-weight="700" font-family="Avenir,Arial,sans-serif">Properties</text>

  <!-- representation style buttons: Wire | Surface (active) | Cloud | Twinkle -->
  <!-- icons: src/gtree/images/wireframe_1.svg, surface_1.svg, cloud_1.svg, centre_1.svg -->
  <rect x="676" y="176" width="48" height="48" rx="4" class="style-btn"/>
  <g transform="translate(676,176)" style="color:var(--muted)">
    <rect x="6" y="6" width="36" height="36" rx="3" fill="none" stroke="currentColor" stroke-width="1"/>
    <rect x="18" y="10" width="14" height="14" fill="none" stroke="currentColor" stroke-width="1"/>
    <rect x="14" y="14" width="14" height="14" fill="none" stroke="currentColor" stroke-width="1"/>
    <line x1="18" y1="10" x2="14" y2="14" stroke="currentColor" stroke-width="1"/>
    <line x1="32" y1="10" x2="28" y2="14" stroke="currentColor" stroke-width="1"/>
    <line x1="32" y1="24" x2="28" y2="28" stroke="currentColor" stroke-width="1"/>
    <line x1="18" y1="24" x2="14" y2="28" stroke="currentColor" stroke-width="1"/>
    <line x1="14" y1="14" x2="28" y2="28" stroke="currentColor" stroke-width="0.75"/>
    <line x1="18" y1="10" x2="32" y2="24" stroke="currentColor" stroke-width="0.75"/>
    <text x="24" y="38" text-anchor="middle" fill="currentColor" font-size="8" font-family="Arial">Wire</text>
  </g>
  <rect x="730" y="176" width="48" height="48" rx="4" fill="var(--active)" stroke="var(--active)" stroke-width="1"/>
  <g transform="translate(730,176)" style="color:white">
    <rect x="6" y="6" width="36" height="36" rx="3" fill="none" stroke="currentColor" stroke-width="1"/>
    <rect x="18" y="10" width="16" height="16" fill="currentColor" fill-opacity="0.08" stroke="currentColor" stroke-width="1"/>
    <polygon points="14,14 30,14 34,10 18,10" fill="currentColor" fill-opacity="0.12" stroke="currentColor" stroke-width="1"/>
    <polygon points="30,14 34,10 34,26 30,30" fill="currentColor" fill-opacity="0.18" stroke="currentColor" stroke-width="1"/>
    <rect x="14" y="14" width="16" height="16" fill="currentColor" fill-opacity="0.22" stroke="currentColor" stroke-width="1"/>
    <line x1="18" y1="10" x2="14" y2="14" stroke="currentColor" stroke-width="1"/>
    <line x1="34" y1="10" x2="30" y2="14" stroke="currentColor" stroke-width="1"/>
    <line x1="34" y1="26" x2="30" y2="30" stroke="currentColor" stroke-width="1"/>
    <line x1="18" y1="26" x2="14" y2="30" stroke="currentColor" stroke-width="1"/>
    <text x="24" y="38" text-anchor="middle" fill="currentColor" font-size="8" font-family="Arial">Surface</text>
  </g>
  <rect x="784" y="176" width="48" height="48" rx="4" class="style-btn"/>
  <g transform="translate(784,176)" style="color:var(--muted)">
    <rect x="6" y="6" width="36" height="36" rx="3" fill="none" stroke="currentColor" stroke-width="1"/>
    <path d="M16 24 C13.8 23.6 12 21.8 12 19.5 C12 17 14 15 16.8 15 C17.5 13.1 19.3 11.8 21.5 11.8 C23.4 11.8 25.0 12.7 26.0 14.2 C26.8 13.9 27.6 13.8 28.5 13.8 C31.2 13.8 33.5 15.9 33.5 18.6 C35.3 19.0 36.7 20.6 36.7 22.5 C36.7 24.9 34.8 26.8 32.4 26.8 H19.2 C18.2 26.8 17.0 26.4 16 25.7Z" fill="currentColor" fill-opacity="0.1" stroke="currentColor" stroke-width="1"/>
    <text x="24" y="38" text-anchor="middle" fill="currentColor" font-size="8" font-family="Arial">Cloud</text>
  </g>
  <rect x="838" y="176" width="48" height="48" rx="4" class="style-btn"/>
  <g transform="translate(838,176)" style="color:var(--muted)">
    <rect x="6" y="6" width="36" height="36" rx="3" fill="none" stroke="currentColor" stroke-width="1"/>
    <circle cx="24" cy="21" r="5" fill="none" stroke="currentColor" stroke-width="1.2"/>
    <line x1="24" y1="12" x2="24" y2="16" stroke="currentColor" stroke-width="1.2" stroke-linecap="round"/>
    <line x1="24" y1="26" x2="24" y2="30" stroke="currentColor" stroke-width="1.2" stroke-linecap="round"/>
    <line x1="15" y1="21" x2="19" y2="21" stroke="currentColor" stroke-width="1.2" stroke-linecap="round"/>
    <line x1="29" y1="21" x2="33" y2="21" stroke="currentColor" stroke-width="1.2" stroke-linecap="round"/>
    <circle cx="24" cy="21" r="1.2" fill="currentColor"/>
    <line x1="14" y1="14" x2="14" y2="17" stroke="currentColor" stroke-width="1" stroke-linecap="round"/>
    <line x1="12.5" y1="15.5" x2="15.5" y2="15.5" stroke="currentColor" stroke-width="1" stroke-linecap="round"/>
    <line x1="34" y1="14" x2="34" y2="17" stroke="currentColor" stroke-width="1" stroke-linecap="round"/>
    <line x1="32.5" y1="15.5" x2="35.5" y2="15.5" stroke="currentColor" stroke-width="1" stroke-linecap="round"/>
    <line x1="34" y1="27" x2="34" y2="30" stroke="currentColor" stroke-width="1" stroke-linecap="round"/>
    <line x1="32.5" y1="28.5" x2="35.5" y2="28.5" stroke="currentColor" stroke-width="1" stroke-linecap="round"/>
    <text x="24" y="38" text-anchor="middle" fill="currentColor" font-size="8" font-family="Arial">Twinkle</text>
  </g>

  <line x1="674" y1="232" x2="950" y2="232" stroke="var(--divider)" stroke-width="1"/>

  <!-- volume properties (chamber_0 selected) -->
  <text x="674" y="252" class="prop-key">Type</text>
  <text x="750" y="252" class="prop-val">G4 Volume</text>

  <text x="674" y="268" class="prop-key">Daughters</text>
  <text x="750" y="268" class="prop-val">0</text>

  <text x="674" y="284" class="prop-key">Name</text>
  <text x="750" y="284" class="prop-val">chamber_0</text>

  <text x="674" y="300" class="prop-key">Material</text>
  <text x="750" y="300" class="prop-val">G4_Xe</text>

  <text x="674" y="316" class="prop-key">Total Mass</text>
  <text x="750" y="316" class="prop-val">197.4 g</text>

  <text x="674" y="332" class="prop-key">Volume</text>
  <text x="750" y="332" class="prop-val">36 191 cm3</text>

  <text x="674" y="348" class="prop-key">Avg. Density</text>
  <text x="750" y="348" class="prop-val">5.46e-3 g/cm3</text>

  <line x1="674" y1="362" x2="950" y2="362" stroke="var(--divider)" stroke-width="1"/>

  <!-- opacity -->
  <text x="674" y="380" class="prop-key">Opacity:</text>
  <rect x="730" y="371" width="168" height="6" rx="3" fill="var(--border)"/>
  <circle cx="898" cy="374" r="7" fill="var(--input)" stroke="var(--border)" stroke-width="1.5"/>
  <text x="914" y="380" class="prop-val">1.00</text>

  <text x="674" y="402" class="prop-key">Solid</text>
  <text x="750" y="402" class="prop-val">G4Tubs</text>
  <rect x="674" y="412" width="260" height="54" rx="4" class="input-box"/>
  <text x="684" y="428" class="prop-val">pRMin: 0*cm</text>
  <text x="684" y="444" class="prop-val">pRMax: 5*cm</text>
  <text x="684" y="460" class="prop-val">pDz: 25*cm</text>
  <text x="674" y="484" class="prop-key">Position</text>
  <text x="750" y="484" class="prop-val">0*cm, 0*cm, 0*cm</text>
  <text x="674" y="500" class="prop-key">Rotation</text>
  <text x="750" y="500" class="prop-val">0*deg, 0*deg, 0*deg</text>
  <text x="674" y="516" class="prop-key">Mother</text>
  <text x="750" y="516" class="prop-val">tracker</text>
  <text x="674" y="532" class="prop-key">Description</text>
  <text x="750" y="532" class="prop-val">drift chamber</text>
  <rect x="674" y="540" width="260" height="22" rx="5" class="topbar-btn"/>
  <text x="804" y="555" class="ui-label" text-anchor="middle">Inspect chamber_0</text>
  <rect x="674" y="566" width="260" height="22" rx="5" class="topbar-btn"/>
  <text x="804" y="581" class="ui-label" text-anchor="middle">Draw Logical Overlaps chamber_0</text>

  <!-- ═════════════════════════════════════════════════════════════
       ANNOTATIONS
       ═════════════════════════════════════════════════════════════ -->

  <!-- 1 · Check to show / hide
       Label below tracker row, arrow up to tracker's visibility checkbox -->
  <line x1="148" y1="390" x2="148" y2="238" class="ann-line"/>
  <rect x="80" y="392" width="136" height="20" rx="5" class="ann-box"/>
  <text x="148" y="406" class="ann-text">Check to show / hide</text>

  <!-- 2 · Click to change color
       Label below target row (offset right), arrow up to target's color button -->
  <line x1="215" y1="440" x2="193" y2="216" class="ann-line"/>
  <rect x="143" y="442" width="144" height="20" rx="5" class="ann-box"/>
  <text x="215" y="456" class="ann-text">Click to change color</text>

  <!-- 3 · Volumes in system tree
       Label above column header, arrow down to Name col header -->
  <line x1="420" y1="118" x2="420" y2="128" class="ann-line"/>
  <rect x="320" y="98" width="200" height="20" rx="5" class="ann-box"/>
  <text x="420" y="112" class="ann-text">Volumes in system tree</text>

  <!-- 4 · Selected volume properties
       Label above properties panel header, arrow down to it -->
  <line x1="800" y1="118" x2="800" y2="162" class="ann-line"/>
  <rect x="696" y="98" width="208" height="20" rx="5" class="ann-box"/>
  <text x="800" y="112" class="ann-text">Selected volume info</text>

  <!-- 5 · Set transparency (0–1)
       Label right of opacity slider, arrow left to slider -->
  <line x1="712" y1="374" x2="726" y2="374" class="ann-line"/>
  <rect x="714" y="386" width="172" height="20" rx="5" class="ann-box"/>
  <text x="800" y="400" class="ann-text">Set transparency (0–1)</text>

  <!-- 6 · Representation and volume actions -->
  <line x1="904" y1="154" x2="862" y2="176" class="ann-line"/>
  <rect x="820" y="132" width="128" height="20" rx="5" class="ann-box"/>
  <text x="884" y="146" class="ann-text">Style buttons</text>
  <line x1="802" y1="520" x2="804" y2="540" class="ann-line"/>
  <rect x="718" y="496" width="168" height="20" rx="5" class="ann-box"/>
  <text x="802" y="510" class="ann-text">Inspect / overlaps</text>

</svg>
