<svg xmlns="http://www.w3.org/2000/svg" width="1024" height="1024" viewBox="0 0 100 100">
  <defs>
    <linearGradient id="bg" x1="0" y1="0" x2="1" y2="1">
      <stop offset="0" stop-color="#0b1020"/>
      <stop offset="1" stop-color="#161d3a"/>
    </linearGradient>
    <clipPath id="r"><rect width="100" height="100" rx="18"/></clipPath>
  </defs>
  <g clip-path="url(#r)">
    <rect width="100" height="100" fill="url(#bg)"/>
    <!-- detector layers: rings of small trapezoid cells -->
    <g stroke="#ffffff" stroke-opacity="0.85" stroke-width="0.35" stroke-linejoin="round" fill-opacity="0.55">
      <path d="M61.92 48.63 L61.92 51.37 L67.88 52.05 L67.88 47.95 Z" fill="#3ecf8e"/>
      <path d="M61.82 52.05 L61.05 54.67 L66.58 57.01 L67.74 53.07 Z" fill="#ffd23e"/>
      <path d="M60.77 55.29 L59.29 57.60 L63.93 61.39 L66.15 57.94 Z" fill="#f5a623"/>
      <path d="M58.84 58.11 L56.77 59.91 L60.16 64.86 L63.26 62.17 Z" fill="#38d6e0"/>
      <path d="M56.20 60.28 L53.71 61.41 L55.56 67.12 L59.30 65.41 Z" fill="#3ecf8e"/>
      <path d="M53.05 61.61 L50.34 62.00 L50.51 67.99 L54.58 67.41 Z" fill="#ffd23e"/>
      <path d="M49.66 62.00 L46.95 61.61 L45.42 67.41 L49.49 67.99 Z" fill="#f5a623"/>
      <path d="M46.29 61.41 L43.80 60.28 L40.70 65.41 L44.44 67.12 Z" fill="#38d6e0"/>
      <path d="M43.23 59.91 L41.16 58.11 L36.74 62.17 L39.84 64.86 Z" fill="#3ecf8e"/>
      <path d="M40.71 57.60 L39.23 55.29 L33.85 57.94 L36.07 61.39 Z" fill="#ffd23e"/>
      <path d="M38.95 54.67 L38.18 52.05 L32.26 53.07 L33.42 57.01 Z" fill="#f5a623"/>
      <path d="M38.08 51.37 L38.08 48.63 L32.12 47.95 L32.12 52.05 Z" fill="#38d6e0"/>
      <path d="M38.18 47.95 L38.95 45.33 L33.42 42.99 L32.26 46.93 Z" fill="#3ecf8e"/>
      <path d="M39.23 44.71 L40.71 42.40 L36.07 38.61 L33.85 42.06 Z" fill="#ffd23e"/>
      <path d="M41.16 41.89 L43.23 40.09 L39.84 35.14 L36.74 37.83 Z" fill="#f5a623"/>
      <path d="M43.80 39.72 L46.29 38.59 L44.44 32.88 L40.70 34.59 Z" fill="#38d6e0"/>
      <path d="M46.95 38.39 L49.66 38.00 L49.49 32.01 L45.42 32.59 Z" fill="#3ecf8e"/>
      <path d="M50.34 38.00 L53.05 38.39 L54.58 32.59 L50.51 32.01 Z" fill="#ffd23e"/>
      <path d="M53.71 38.59 L56.20 39.72 L59.30 34.59 L55.56 32.88 Z" fill="#f5a623"/>
      <path d="M56.77 40.09 L58.84 41.89 L63.26 37.83 L60.16 35.14 Z" fill="#38d6e0"/>
      <path d="M59.29 42.40 L60.77 44.71 L66.15 42.06 L63.93 38.61 Z" fill="#3ecf8e"/>
      <path d="M61.05 45.33 L61.82 47.95 L67.74 46.93 L66.58 42.99 Z" fill="#ffd23e"/>
      <path d="M73.84 47.26 L73.84 52.74 L79.80 53.42 L79.80 46.58 Z" fill="#ffd23e"/>
      <path d="M73.65 54.09 L72.11 59.34 L77.63 61.68 L79.56 55.12 Z" fill="#f5a623"/>
      <path d="M71.54 60.59 L68.58 65.19 L73.22 68.99 L76.92 63.24 Z" fill="#38d6e0"/>
      <path d="M67.68 66.23 L63.55 69.81 L66.93 74.76 L72.10 70.29 Z" fill="#3ecf8e"/>
      <path d="M62.39 70.55 L57.42 72.83 L59.27 78.53 L65.49 75.69 Z" fill="#ffd23e"/>
      <path d="M56.10 73.21 L50.69 73.99 L50.86 79.99 L57.63 79.01 Z" fill="#f5a623"/>
      <path d="M49.31 73.99 L43.90 73.21 L42.37 79.01 L49.14 79.99 Z" fill="#38d6e0"/>
      <path d="M42.58 72.83 L37.61 70.55 L34.51 75.69 L40.73 78.53 Z" fill="#3ecf8e"/>
      <path d="M36.45 69.81 L32.32 66.23 L27.90 70.29 L33.07 74.76 Z" fill="#ffd23e"/>
      <path d="M31.42 65.19 L28.46 60.59 L23.08 63.24 L26.78 68.99 Z" fill="#f5a623"/>
      <path d="M27.89 59.34 L26.35 54.09 L20.44 55.12 L22.37 61.68 Z" fill="#38d6e0"/>
      <path d="M26.16 52.74 L26.16 47.26 L20.20 46.58 L20.20 53.42 Z" fill="#3ecf8e"/>
      <path d="M26.35 45.91 L27.89 40.66 L22.37 38.32 L20.44 44.88 Z" fill="#ffd23e"/>
      <path d="M28.46 39.41 L31.42 34.81 L26.78 31.01 L23.08 36.76 Z" fill="#f5a623"/>
      <path d="M32.32 33.77 L36.45 30.19 L33.07 25.24 L27.90 29.71 Z" fill="#38d6e0"/>
      <path d="M37.61 29.45 L42.58 27.17 L40.73 21.47 L34.51 24.31 Z" fill="#3ecf8e"/>
      <path d="M43.90 26.79 L49.31 26.01 L49.14 20.01 L42.37 20.99 Z" fill="#ffd23e"/>
      <path d="M50.69 26.01 L56.10 26.79 L57.63 20.99 L50.86 20.01 Z" fill="#f5a623"/>
      <path d="M57.42 27.17 L62.39 29.45 L65.49 24.31 L59.27 21.47 Z" fill="#38d6e0"/>
      <path d="M63.55 30.19 L67.68 33.77 L72.10 29.71 L66.93 25.24 Z" fill="#3ecf8e"/>
      <path d="M68.58 34.81 L71.54 39.41 L76.92 36.76 L73.22 31.01 Z" fill="#ffd23e"/>
      <path d="M72.11 40.66 L73.65 45.91 L79.56 44.88 L77.63 38.32 Z" fill="#f5a623"/>
      <path d="M85.77 45.90 L85.77 54.10 L91.73 54.79 L91.73 45.21 Z" fill="#f5a623"/>
      <path d="M85.47 56.14 L83.16 64.01 L88.69 66.35 L91.38 57.16 Z" fill="#38d6e0"/>
      <path d="M82.31 65.88 L77.87 72.79 L82.51 76.59 L87.69 68.53 Z" fill="#3ecf8e"/>
      <path d="M76.52 74.34 L70.32 79.72 L73.71 84.67 L80.94 78.40 Z" fill="#ffd23e"/>
      <path d="M68.59 80.83 L61.12 84.24 L62.98 89.94 L71.69 85.97 Z" fill="#f5a623"/>
      <path d="M59.15 84.82 L51.03 85.99 L51.20 91.98 L60.68 90.62 Z" fill="#38d6e0"/>
      <path d="M48.97 85.99 L40.85 84.82 L39.32 90.62 L48.80 91.98 Z" fill="#3ecf8e"/>
      <path d="M38.88 84.24 L31.41 80.83 L28.31 85.97 L37.02 89.94 Z" fill="#ffd23e"/>
      <path d="M29.68 79.72 L23.48 74.34 L19.06 78.40 L26.29 84.67 Z" fill="#f5a623"/>
      <path d="M22.13 72.79 L17.69 65.88 L12.31 68.53 L17.49 76.59 Z" fill="#38d6e0"/>
      <path d="M16.84 64.01 L14.53 56.14 L8.62 57.16 L11.31 66.35 Z" fill="#3ecf8e"/>
      <path d="M14.23 54.10 L14.23 45.90 L8.27 45.21 L8.27 54.79 Z" fill="#ffd23e"/>
      <path d="M14.53 43.86 L16.84 35.99 L11.31 33.65 L8.62 42.84 Z" fill="#f5a623"/>
      <path d="M17.69 34.12 L22.13 27.21 L17.49 23.41 L12.31 31.47 Z" fill="#38d6e0"/>
      <path d="M23.48 25.66 L29.68 20.28 L26.29 15.33 L19.06 21.60 Z" fill="#3ecf8e"/>
      <path d="M31.41 19.17 L38.88 15.76 L37.02 10.06 L28.31 14.03 Z" fill="#ffd23e"/>
      <path d="M40.85 15.18 L48.97 14.01 L48.80 8.02 L39.32 9.38 Z" fill="#f5a623"/>
      <path d="M51.03 14.01 L59.15 15.18 L60.68 9.38 L51.20 8.02 Z" fill="#38d6e0"/>
      <path d="M61.12 15.76 L68.59 19.17 L71.69 14.03 L62.98 10.06 Z" fill="#3ecf8e"/>
      <path d="M70.32 20.28 L76.52 25.66 L80.94 21.60 L73.71 15.33 Z" fill="#ffd23e"/>
      <path d="M77.87 27.21 L82.31 34.12 L87.69 31.47 L82.51 23.41 Z" fill="#f5a623"/>
      <path d="M83.16 35.99 L85.47 43.86 L91.38 42.84 L88.69 33.65 Z" fill="#38d6e0"/>
    </g>
    <!-- bent tracks -->
    <g fill="none" stroke-linecap="round">
      <path d="M50.00 50.00 L50.39 49.54 L50.78 49.09 L51.18 48.64 L51.59 48.20 L52.00 47.77 L52.42 47.33 L52.84 46.91 L53.27 46.49 L53.71 46.07 L54.15 45.66 L54.59 45.26 L55.04 44.86 L55.50 44.47 L55.96 44.08 L56.43 43.70 L56.90 43.33 L57.38 42.96 L57.86 42.59 L58.35 42.24 L58.84 41.88 L59.34 41.54 L59.84 41.20 L60.34 40.87 L60.86 40.54 L61.37 40.22 L61.89 39.90 L62.42 39.60 L62.95 39.29 L63.48 39.00 L64.02 38.71 L64.56 38.43 L65.11 38.15 L65.66 37.89 L66.22 37.62 L66.78 37.37 L67.34 37.12 L67.91 36.88 L68.48 36.64 L69.05 36.41 L69.63 36.19 L70.21 35.98 L70.80 35.77 L71.39 35.57 L71.98 35.38 L72.58 35.19 L73.18 35.01 L73.78 34.84 L74.39 34.68 L74.99 34.52 L75.61 34.37 L76.22 34.23 L76.84 34.09 L77.46 33.96 L78.08 33.84 L78.71 33.73 L79.34 33.62 L79.97 33.53 L80.60 33.44 L81.24 33.35 L81.88 33.28 L82.52 33.21 L83.16 33.15 L83.81 33.10 L84.46 33.05 L85.11 33.01 L85.76 32.98 L86.41 32.96 L87.07 32.95 L87.72 32.94 L88.38 32.94 L89.04 32.95" stroke="#3ecf8e" stroke-width="3.0" stroke-opacity="1.0"/>
      <path d="M50.00 50.00 L50.30 50.52 L50.62 51.03 L50.94 51.54 L51.27 52.04 L51.61 52.53 L51.95 53.02 L52.31 53.51 L52.67 53.99 L53.04 54.46 L53.42 54.93 L53.81 55.39 L54.21 55.84 L54.61 56.29 L55.02 56.73 L55.44 57.17 L55.87 57.60 L56.30 58.02 L56.74 58.44 L57.19 58.84 L57.65 59.25 L58.11 59.64 L58.58 60.03 L59.06 60.41 L59.55 60.78 L60.04 61.15 L60.54 61.51 L61.04 61.86 L61.55 62.20 L62.07 62.53 L62.59 62.86 L63.12 63.18 L63.66 63.49 L64.20 63.79 L64.75 64.09 L65.31 64.38 L65.87 64.65 L66.44 64.92 L67.01 65.19 L67.58 65.44 L68.17 65.68 L68.76 65.92 L69.35 66.14 L69.95 66.36 L70.55 66.57 L71.16 66.77 L71.77 66.96 L72.39 67.14 L73.01 67.32 L73.64 67.48 L74.27 67.63 L74.91 67.78 L75.55 67.91 L76.19 68.04 L76.84 68.16 L77.49 68.26 L78.14 68.36 L78.80 68.45 L79.46 68.52 L80.13 68.59 L80.79 68.65 L81.46 68.70 L82.14 68.73 L82.81 68.76 L83.49 68.78 L84.18 68.79 L84.86 68.79 L85.55 68.77 L86.24 68.75 L86.93 68.72 L87.62 68.67 L88.31 68.62" stroke="#f5a623" stroke-width="3.0" stroke-opacity="1.0"/>
      <path d="M50.00 50.00 L49.40 50.05 L48.80 50.09 L48.20 50.12 L47.60 50.14 L47.00 50.15 L46.40 50.16 L45.80 50.15 L45.20 50.14 L44.60 50.11 L44.00 50.08 L43.40 50.04 L42.80 49.99 L42.20 49.94 L41.60 49.87 L41.00 49.80 L40.40 49.71 L39.81 49.62 L39.21 49.52 L38.62 49.41 L38.02 49.29 L37.43 49.16 L36.84 49.02 L36.25 48.88 L35.66 48.72 L35.07 48.56 L34.48 48.39 L33.90 48.21 L33.32 48.02 L32.74 47.83 L32.16 47.62 L31.58 47.40 L31.01 47.18 L30.44 46.95 L29.87 46.71 L29.30 46.46 L28.74 46.20 L28.17 45.94 L27.62 45.67 L27.06 45.38 L26.51 45.09 L25.96 44.79 L25.41 44.49 L24.87 44.17 L24.33 43.85 L23.79 43.51 L23.26 43.17 L22.73 42.82 L22.20 42.47 L21.68 42.10 L21.16 41.73 L20.65 41.35 L20.14 40.96 L19.63 40.56 L19.13 40.16 L18.63 39.75 L18.14 39.33 L17.65 38.90 L17.17 38.46 L16.69 38.02 L16.21 37.57 L15.74 37.11 L15.28 36.64 L14.82 36.17 L14.37 35.69 L13.92 35.20 L13.47 34.71 L13.03 34.20 L12.60 33.69 L12.17 33.17 L11.75 32.65 L11.33 32.12" stroke="#ffffff" stroke-width="2.7" stroke-opacity="0.94"/>
    </g>
    <!-- hits on the layers -->
    <g stroke="#0b1020" stroke-width="0.7">
      <circle cx="61.37" cy="40.22" r="2.4" fill="#3ecf8e"/>
      <circle cx="72.58" cy="35.19" r="2.4" fill="#3ecf8e"/>
      <circle cx="85.11" cy="33.01" r="2.4" fill="#3ecf8e"/>
      <circle cx="60.04" cy="61.15" r="2.4" fill="#f5a623"/>
      <circle cx="71.16" cy="66.77" r="2.4" fill="#f5a623"/>
      <circle cx="84.18" cy="68.79" r="2.4" fill="#f5a623"/>
      <circle cx="35.07" cy="48.56" r="2.4" fill="#ffffff"/>
      <circle cx="23.79" cy="43.51" r="2.4" fill="#ffffff"/>
      <circle cx="13.92" cy="35.20" r="2.4" fill="#ffffff"/>
    </g>
    <circle cx="50" cy="50" r="4.6" fill="#0b1020" stroke="#ffffff" stroke-width="1.4"/>
    <circle cx="50" cy="50" r="2.0" fill="#3ecf8e"/>
  </g>
</svg>
